<svg width="186" height="251" viewBox="0 0 186 251" fill="none" xmlns="http://www.w3.org/2000/svg">
<g filter="url(#filter0_d_86_571)">
<circle cx="93" cy="85.1514" r="70" fill="#EDF4FF"/>
<circle cx="92.9999" cy="85.7047" r="57.8261" fill="white"/>
<path d="M81.292 102.772C80.812 102.772 80.3518 102.581 80.0126 102.241L65.5295 87.7581C65.1904 87.4186 65 86.9585 65 86.4787C65 85.999 65.1904 85.5388 65.5295 85.1994L80.0126 70.7162C80.3558 70.3964 80.8097 70.2224 81.2787 70.2306C81.7477 70.2389 82.1952 70.4289 82.5269 70.7606C82.8586 71.0923 83.0486 71.5398 83.0569 72.0088C83.0652 72.4778 82.8911 72.9317 82.5713 73.2749L69.3675 86.4787L82.5713 99.6825C82.8242 99.9357 82.9963 100.258 83.0661 100.609C83.1358 100.96 83.0999 101.324 82.963 101.654C82.8261 101.985 82.5943 102.268 82.2969 102.467C81.9995 102.666 81.6498 102.772 81.292 102.772Z" fill="#002C6D" stroke="#002C6D" stroke-width="0.5"/>
<path d="M104.827 102.772C104.469 102.772 104.12 102.666 103.822 102.467C103.525 102.268 103.293 101.985 103.156 101.654C103.019 101.324 102.983 100.96 103.053 100.609C103.123 100.258 103.295 99.9357 103.548 99.6825L116.752 86.4787L103.548 73.2749C103.228 72.9317 103.054 72.4778 103.062 72.0088C103.07 71.5398 103.26 71.0923 103.592 70.7606C103.924 70.4289 104.371 70.2389 104.84 70.2306C105.309 70.2224 105.763 70.3964 106.106 70.7162L120.59 85.1994C120.929 85.5388 121.119 85.999 121.119 86.4787C121.119 86.9585 120.929 87.4186 120.59 87.7581L106.106 102.241C105.767 102.581 105.307 102.772 104.827 102.772Z" fill="#002C6D" stroke="#002C6D" stroke-width="0.5"/>
<path d="M88.3829 102.772C88.0957 102.773 87.8126 102.705 87.5568 102.574C87.3011 102.444 87.0801 102.254 86.9121 102.021C86.7441 101.788 86.6338 101.519 86.5905 101.235C86.5472 100.951 86.5721 100.661 86.663 100.389L96.3184 71.4222C96.3902 71.1924 96.507 70.9792 96.6622 70.7951C96.8173 70.6111 97.0076 70.4598 97.2219 70.3501C97.4362 70.2404 97.6702 70.1746 97.9103 70.1565C98.1504 70.1384 98.3916 70.1683 98.62 70.2446C98.8483 70.3208 99.0591 70.4418 99.2401 70.6006C99.4212 70.7593 99.5687 70.9525 99.6741 71.1689C99.7795 71.3854 99.8407 71.6206 99.8541 71.861C99.8675 72.1014 99.8329 72.342 99.7521 72.5688L90.0967 101.535C89.9766 101.895 89.7466 102.208 89.4391 102.43C89.1316 102.652 88.7621 102.771 88.3829 102.772Z" fill="#002C6D" stroke="#002C6D" stroke-width="0.5"/>
<path d="M64.6289 208.02C63.4225 207.51 62.5426 206.813 61.9893 205.928C61.4469 205.031 61.1758 204.052 61.1758 202.989C61.1758 201.174 61.8066 199.674 63.0684 198.49C64.3411 197.306 66.1452 196.714 68.4805 196.714C70.7936 196.714 72.5866 197.306 73.8594 198.49C75.1432 199.674 75.7852 201.174 75.7852 202.989C75.7852 204.118 75.4919 205.125 74.9053 206.011C74.3187 206.885 73.4941 207.555 72.4316 208.02C73.7819 208.562 74.8057 209.353 75.5029 210.394C76.2113 211.434 76.5654 212.635 76.5654 213.996C76.5654 216.243 75.846 218.069 74.4072 219.475C72.9795 220.88 71.0758 221.583 68.6963 221.583C66.4827 221.583 64.64 221.002 63.168 219.84C61.4303 218.467 60.5615 216.586 60.5615 214.195C60.5615 212.878 60.888 211.672 61.541 210.576C62.194 209.469 63.2233 208.617 64.6289 208.02ZM65.5918 203.321C65.5918 204.251 65.8519 204.976 66.3721 205.496C66.9033 206.016 67.6061 206.276 68.4805 206.276C69.3659 206.276 70.0742 206.016 70.6055 205.496C71.1367 204.965 71.4023 204.234 71.4023 203.305C71.4023 202.43 71.1367 201.733 70.6055 201.213C70.0853 200.682 69.3936 200.416 68.5303 200.416C67.6338 200.416 66.9199 200.682 66.3887 201.213C65.8574 201.744 65.5918 202.447 65.5918 203.321ZM65.1602 213.747C65.1602 215.031 65.4867 216.033 66.1396 216.752C66.8037 217.471 67.6283 217.831 68.6133 217.831C69.5762 217.831 70.373 217.488 71.0039 216.802C71.6348 216.104 71.9502 215.103 71.9502 213.797C71.9502 212.657 71.6292 211.744 70.9873 211.058C70.3454 210.36 69.5319 210.012 68.5469 210.012C67.4069 210.012 66.5547 210.405 65.9902 211.19C65.4368 211.976 65.1602 212.828 65.1602 213.747ZM88.7012 221.151V216.254H78.7402V212.17L89.2988 196.714H93.2168V212.153H96.2383V216.254H93.2168V221.151H88.7012ZM88.7012 212.153V203.836L83.1064 212.153H88.7012ZM114.284 202.773L109.769 203.271C109.658 202.342 109.37 201.656 108.905 201.213C108.44 200.77 107.837 200.549 107.096 200.549C106.111 200.549 105.275 200.992 104.589 201.877C103.914 202.762 103.488 204.605 103.311 207.405C104.473 206.033 105.917 205.347 107.644 205.347C109.591 205.347 111.257 206.088 112.641 207.571C114.035 209.054 114.732 210.969 114.732 213.315C114.732 215.806 114.002 217.803 112.541 219.309C111.08 220.814 109.204 221.566 106.913 221.566C104.456 221.566 102.436 220.615 100.854 218.711C99.2708 216.796 98.4795 213.664 98.4795 209.314C98.4795 204.854 99.304 201.639 100.953 199.669C102.602 197.699 104.744 196.714 107.378 196.714C109.226 196.714 110.754 197.234 111.96 198.274C113.177 199.304 113.952 200.803 114.284 202.773ZM103.709 212.95C103.709 214.466 104.058 215.64 104.755 216.47C105.452 217.289 106.249 217.698 107.146 217.698C108.009 217.698 108.728 217.361 109.304 216.686C109.879 216.01 110.167 214.904 110.167 213.365C110.167 211.783 109.857 210.626 109.237 209.896C108.618 209.154 107.843 208.783 106.913 208.783C106.017 208.783 105.258 209.137 104.639 209.846C104.019 210.543 103.709 211.578 103.709 212.95ZM123.747 217.648V211.323H117.372V206.957H123.747V200.632H127.997V206.957H134.389V211.323H127.997V217.648H123.747Z" fill="#002C6D"/>
</g>
<defs>
<filter id="filter0_d_86_571" x="0.974684" y="0.467823" width="184.051" height="250.482" filterUnits="userSpaceOnUse" color-interpolation-filters="sRGB">
<feFlood flood-opacity="0" result="BackgroundImageFix"/>
<feColorMatrix in="SourceAlpha" type="matrix" values="0 0 0 0 0 0 0 0 0 0 0 0 0 0 0 0 0 0 127 0" result="hardAlpha"/>
<feOffset dy="7.34177"/>
<feGaussianBlur stdDeviation="11.0127"/>
<feComposite in2="hardAlpha" operator="out"/>
<feColorMatrix type="matrix" values="0 0 0 0 0 0 0 0 0 0 0 0 0 0 0 0 0 0 0.2 0"/>
<feBlend mode="normal" in2="BackgroundImageFix" result="effect1_dropShadow_86_571"/>
<feBlend mode="normal" in="SourceGraphic" in2="effect1_dropShadow_86_571" result="shape"/>
</filter>
</defs>
</svg>
