<svg width="196" height="251" viewBox="0 0 196 251" fill="none" xmlns="http://www.w3.org/2000/svg">
<g filter="url(#filter0_d_86_594)">
<circle cx="98" cy="90.1514" r="75" fill="#EDF4FF"/>
<circle cx="98" cy="90.7442" r="61.9565" fill="white"/>
<path d="M129.2 72.1514C126.568 72.1514 124.4 74.2968 124.4 76.9014C124.4 78.1285 124.891 79.2458 125.675 80.0928L115 96.2477C114.441 96.0198 113.838 95.9014 113.2 95.9014C112.981 95.9014 112.762 95.922 112.55 95.9508L106.2 85.5107C106.582 84.831 106.8 84.0605 106.8 83.2347C106.8 80.6301 104.632 78.4847 102 78.4847C99.368 78.4847 97.2 80.6301 97.2 83.2347C97.2 84.537 97.754 85.7126 98.625 86.5745L92.9 100.676C92.7395 100.66 92.5645 100.651 92.4 100.651C91.8574 100.651 91.3382 100.756 90.85 100.924L86.2 89.7165C87.0563 88.8567 87.6 87.6911 87.6 86.4014C87.6 83.7968 85.432 81.6514 82.8 81.6514C80.168 81.6514 78 83.7968 78 86.4014C78 86.8556 78.0772 87.2952 78.2 87.7126L68.45 95.4066C67.9333 95.2162 67.3801 95.1097 66.8 95.1097C64.168 95.1097 62 97.2551 62 99.8597C62 102.464 64.168 104.61 66.8 104.61C69.432 104.61 71.6 102.464 71.6 99.8597C71.6 98.9955 71.3651 98.1862 70.95 97.4847L80.05 90.2855C80.8309 90.8306 81.7811 91.1514 82.8 91.1514C82.9734 91.1514 83.1561 91.1448 83.325 91.1266L88.275 103.002C87.8492 103.71 87.6 104.525 87.6 105.401C87.6 108.006 89.768 110.151 92.4 110.151C95.032 110.151 97.2 108.006 97.2 105.401C97.2 104.099 96.646 102.923 95.775 102.062L101.475 87.96C101.644 87.9781 101.827 87.9847 102 87.9847C102.629 87.9847 103.222 87.8605 103.775 87.6383L109.7 97.4352C108.901 98.285 108.4 99.4117 108.4 100.651C108.4 103.256 110.568 105.401 113.2 105.401C115.832 105.401 118 103.256 118 100.651C118 99.8374 117.796 99.0729 117.425 98.4001L128.525 81.6019C128.745 81.6331 128.972 81.6514 129.2 81.6514C131.832 81.6514 134 79.506 134 76.9014C134 74.2968 131.832 72.1514 129.2 72.1514ZM129.2 75.318C130.103 75.318 130.8 76.0082 130.8 76.9014C130.8 77.7946 130.103 78.4847 129.2 78.4847C128.297 78.4847 127.6 77.7946 127.6 76.9014C127.6 76.0082 128.297 75.318 129.2 75.318ZM102 81.6514C102.903 81.6514 103.6 82.3415 103.6 83.2347C103.6 84.1279 102.903 84.818 102 84.818C101.097 84.818 100.4 84.1279 100.4 83.2347C100.4 82.3415 101.097 81.6514 102 81.6514ZM82.8 84.818C83.7026 84.818 84.4 85.5082 84.4 86.4014C84.4 87.2946 83.7026 87.9847 82.8 87.9847C81.8974 87.9847 81.2 87.2946 81.2 86.4014C81.2 85.5082 81.8974 84.818 82.8 84.818ZM66.8 98.2764C67.7026 98.2764 68.4 98.9665 68.4 99.8597C68.4 100.753 67.7026 101.443 66.8 101.443C65.8974 101.443 65.2 100.753 65.2 99.8597C65.2 98.9665 65.8974 98.2764 66.8 98.2764ZM113.2 99.068C114.103 99.068 114.8 99.7581 114.8 100.651C114.8 101.545 114.103 102.235 113.2 102.235C112.297 102.235 111.6 101.545 111.6 100.651C111.6 99.7581 112.297 99.068 113.2 99.068ZM92.4 103.818C93.3026 103.818 94 104.508 94 105.401C94 106.295 93.3026 106.985 92.4 106.985C91.4974 106.985 90.8 106.295 90.8 105.401C90.8 104.508 91.4974 103.818 92.4 103.818Z" fill="#002C6D"/>
<path d="M53.6387 221.151H48.9736V203.57C47.2692 205.164 45.2604 206.343 42.9473 207.106V202.873C44.1647 202.475 45.4873 201.722 46.915 200.615C48.3428 199.497 49.3223 198.197 49.8535 196.714H53.6387V221.151ZM60.6943 214.893L65.3428 214.411C65.4756 215.463 65.8685 216.298 66.5215 216.918C67.1745 217.527 67.9271 217.831 68.7793 217.831C69.7533 217.831 70.5778 217.438 71.2529 216.652C71.9281 215.855 72.2656 214.66 72.2656 213.066C72.2656 211.572 71.9281 210.454 71.2529 209.713C70.5889 208.96 69.7201 208.584 68.6465 208.584C67.3073 208.584 66.1064 209.176 65.0439 210.36L61.2588 209.812L63.6494 197.146H75.9844V201.512H67.1855L66.4551 205.646C67.4954 205.125 68.5579 204.865 69.6426 204.865C71.7122 204.865 73.4665 205.618 74.9053 207.123C76.3441 208.628 77.0635 210.582 77.0635 212.983C77.0635 214.987 76.4824 216.774 75.3203 218.346C73.7376 220.493 71.5407 221.566 68.7295 221.566C66.4827 221.566 64.651 220.963 63.2344 219.757C61.8177 218.55 60.971 216.929 60.6943 214.893ZM79.3877 214.693L83.9033 214.146C84.0472 215.297 84.4346 216.176 85.0654 216.785C85.6963 217.394 86.46 217.698 87.3564 217.698C88.3193 217.698 89.1273 217.333 89.7803 216.603C90.4443 215.872 90.7764 214.887 90.7764 213.647C90.7764 212.474 90.4609 211.545 89.8301 210.858C89.1992 210.172 88.43 209.829 87.5225 209.829C86.9248 209.829 86.2109 209.945 85.3809 210.178L85.8955 206.376C87.1572 206.409 88.1201 206.138 88.7842 205.562C89.4482 204.976 89.7803 204.201 89.7803 203.238C89.7803 202.419 89.5368 201.766 89.0498 201.279C88.5628 200.792 87.9154 200.549 87.1074 200.549C86.3105 200.549 85.6299 200.826 85.0654 201.379C84.501 201.932 84.1579 202.74 84.0361 203.803L79.7363 203.072C80.0352 201.6 80.4834 200.427 81.0811 199.553C81.6898 198.667 82.5309 197.976 83.6045 197.478C84.6891 196.968 85.901 196.714 87.2402 196.714C89.5312 196.714 91.3685 197.444 92.752 198.905C93.8919 200.101 94.4619 201.451 94.4619 202.956C94.4619 205.092 93.2943 206.797 90.959 208.069C92.3535 208.368 93.4658 209.038 94.2959 210.078C95.137 211.118 95.5576 212.375 95.5576 213.847C95.5576 215.983 94.7773 217.803 93.2168 219.309C91.6562 220.814 89.7139 221.566 87.3896 221.566C85.1872 221.566 83.361 220.936 81.9111 219.674C80.4613 218.401 79.6201 216.741 79.3877 214.693ZM114.284 202.773L109.769 203.271C109.658 202.342 109.37 201.656 108.905 201.213C108.44 200.77 107.837 200.549 107.096 200.549C106.111 200.549 105.275 200.992 104.589 201.877C103.914 202.762 103.488 204.605 103.311 207.405C104.473 206.033 105.917 205.347 107.644 205.347C109.591 205.347 111.257 206.088 112.641 207.571C114.035 209.054 114.732 210.969 114.732 213.315C114.732 215.806 114.002 217.803 112.541 219.309C111.08 220.814 109.204 221.566 106.913 221.566C104.456 221.566 102.436 220.615 100.854 218.711C99.2708 216.796 98.4795 213.664 98.4795 209.314C98.4795 204.854 99.304 201.639 100.953 199.669C102.602 197.699 104.744 196.714 107.378 196.714C109.226 196.714 110.754 197.234 111.96 198.274C113.177 199.304 113.952 200.803 114.284 202.773ZM103.709 212.95C103.709 214.466 104.058 215.64 104.755 216.47C105.452 217.289 106.249 217.698 107.146 217.698C108.009 217.698 108.728 217.361 109.304 216.686C109.879 216.01 110.167 214.904 110.167 213.365C110.167 211.783 109.857 210.626 109.237 209.896C108.618 209.154 107.843 208.783 106.913 208.783C106.017 208.783 105.258 209.137 104.639 209.846C104.019 210.543 103.709 211.578 103.709 212.95ZM125.291 196.714C127.648 196.714 129.491 197.555 130.819 199.237C132.402 201.229 133.193 204.533 133.193 209.148C133.193 213.753 132.396 217.062 130.803 219.076C129.486 220.736 127.648 221.566 125.291 221.566C122.923 221.566 121.013 220.659 119.563 218.844C118.114 217.018 117.389 213.769 117.389 209.099C117.389 204.517 118.186 201.218 119.779 199.204C121.096 197.544 122.934 196.714 125.291 196.714ZM125.291 200.582C124.727 200.582 124.223 200.765 123.78 201.13C123.338 201.484 122.994 202.126 122.751 203.056C122.43 204.262 122.27 206.293 122.27 209.148C122.27 212.004 122.413 213.968 122.701 215.042C122.989 216.104 123.349 216.813 123.78 217.167C124.223 217.521 124.727 217.698 125.291 217.698C125.855 217.698 126.359 217.521 126.802 217.167C127.244 216.802 127.588 216.154 127.831 215.225C128.152 214.029 128.312 212.004 128.312 209.148C128.312 206.293 128.169 204.334 127.881 203.271C127.593 202.198 127.228 201.484 126.785 201.13C126.354 200.765 125.855 200.582 125.291 200.582ZM142.673 217.648V211.323H136.298V206.957H142.673V200.632H146.923V206.957H153.314V211.323H146.923V217.648H142.673Z" fill="#002C6D"/>
</g>
<defs>
<filter id="filter0_d_86_594" x="0.974684" y="0.467823" width="194.051" height="250.466" filterUnits="userSpaceOnUse" color-interpolation-filters="sRGB">
<feFlood flood-opacity="0" result="BackgroundImageFix"/>
<feColorMatrix in="SourceAlpha" type="matrix" values="0 0 0 0 0 0 0 0 0 0 0 0 0 0 0 0 0 0 127 0" result="hardAlpha"/>
<feOffset dy="7.34177"/>
<feGaussianBlur stdDeviation="11.0127"/>
<feComposite in2="hardAlpha" operator="out"/>
<feColorMatrix type="matrix" values="0 0 0 0 0 0 0 0 0 0 0 0 0 0 0 0 0 0 0.2 0"/>
<feBlend mode="normal" in2="BackgroundImageFix" result="effect1_dropShadow_86_594"/>
<feBlend mode="normal" in="SourceGraphic" in2="effect1_dropShadow_86_594" result="shape"/>
</filter>
</defs>
</svg>
