<svg width="196" height="251" viewBox="0 0 196 251" fill="none" xmlns="http://www.w3.org/2000/svg">
<g filter="url(#filter0_d_86_603)">
<circle cx="98" cy="90.1514" r="75" fill="#EDF4FF"/>
<circle cx="98" cy="90.7442" r="61.9565" fill="white"/>
<path d="M121.98 98.7739L98.5378 112.099C98.1992 112.287 97.7855 112.287 97.447 112.099L74.0137 98.7739C73.5624 98.5201 72.9888 98.6799 72.7349 99.1313C72.481 99.5826 72.6409 100.156 73.0922 100.41L96.5255 113.725C96.9862 113.988 97.494 114.12 98.0018 114.12C98.5095 114.12 99.0173 113.988 99.4781 113.725L122.911 100.4C123.363 100.147 123.522 99.573 123.269 99.1216C123.015 98.6703 122.441 98.5104 121.99 98.7643L121.98 98.7739Z" fill="#002C6D"/>
<path d="M121.98 92.0037L98.5378 105.328C98.1992 105.516 97.7855 105.516 97.447 105.328L74.0137 92.0037C73.5624 91.7498 72.9888 91.9096 72.7349 92.361C72.481 92.8124 72.6409 93.3859 73.0922 93.6398L96.5255 106.955C96.9862 107.218 97.494 107.35 98.0018 107.35C98.5095 107.35 99.0173 107.218 99.4781 106.955L122.911 93.6302C123.363 93.3763 123.522 92.8027 123.269 92.3514C123.015 91.9 122.441 91.7402 121.99 91.994L121.98 92.0037Z" fill="#002C6D"/>
<path d="M74.1171 87.4617L96.5248 100.194C96.9762 100.447 97.4934 100.579 98.0011 100.579C98.5089 100.579 99.0167 100.447 99.4774 100.194L121.885 87.4617C122.825 86.9257 123.39 85.9572 123.39 84.8664C123.39 83.7756 122.825 82.8071 121.885 82.2711L99.4774 69.5393C98.5653 69.0221 97.4369 69.0221 96.5342 69.5393L74.1168 82.2807C73.1765 82.8167 72.6123 83.7853 72.6123 84.876C72.6123 85.9668 73.1765 86.9354 74.1168 87.4713L74.1171 87.4617Z" fill="#002C6D"/>
<path d="M69.7754 221.151V216.254H59.8145V212.17L70.373 196.714H74.291V212.153H77.3125V216.254H74.291V221.151H69.7754ZM69.7754 212.153V203.836L64.1807 212.153H69.7754ZM87.4395 196.714C89.7969 196.714 91.6396 197.555 92.9678 199.237C94.5505 201.229 95.3418 204.533 95.3418 209.148C95.3418 213.753 94.5449 217.062 92.9512 219.076C91.6341 220.736 89.7969 221.566 87.4395 221.566C85.071 221.566 83.1618 220.659 81.7119 218.844C80.262 217.018 79.5371 213.769 79.5371 209.099C79.5371 204.517 80.334 201.218 81.9277 199.204C83.2448 197.544 85.082 196.714 87.4395 196.714ZM87.4395 200.582C86.875 200.582 86.3714 200.765 85.9287 201.13C85.486 201.484 85.1429 202.126 84.8994 203.056C84.5785 204.262 84.418 206.293 84.418 209.148C84.418 212.004 84.5618 213.968 84.8496 215.042C85.1374 216.104 85.4971 216.813 85.9287 217.167C86.3714 217.521 86.875 217.698 87.4395 217.698C88.0039 217.698 88.5075 217.521 88.9502 217.167C89.3929 216.802 89.736 216.154 89.9795 215.225C90.3005 214.029 90.4609 212.004 90.4609 209.148C90.4609 206.293 90.3171 204.334 90.0293 203.271C89.7415 202.198 89.3763 201.484 88.9336 201.13C88.502 200.765 88.0039 200.582 87.4395 200.582ZM102.48 208.02C101.274 207.51 100.394 206.813 99.8408 205.928C99.2985 205.031 99.0273 204.052 99.0273 202.989C99.0273 201.174 99.6582 199.674 100.92 198.49C102.193 197.306 103.997 196.714 106.332 196.714C108.645 196.714 110.438 197.306 111.711 198.49C112.995 199.674 113.637 201.174 113.637 202.989C113.637 204.118 113.343 205.125 112.757 206.011C112.17 206.885 111.346 207.555 110.283 208.02C111.633 208.562 112.657 209.353 113.354 210.394C114.063 211.434 114.417 212.635 114.417 213.996C114.417 216.243 113.698 218.069 112.259 219.475C110.831 220.88 108.927 221.583 106.548 221.583C104.334 221.583 102.492 221.002 101.02 219.84C99.2819 218.467 98.4131 216.586 98.4131 214.195C98.4131 212.878 98.7396 211.672 99.3926 210.576C100.046 209.469 101.075 208.617 102.48 208.02ZM103.443 203.321C103.443 204.251 103.703 204.976 104.224 205.496C104.755 206.016 105.458 206.276 106.332 206.276C107.217 206.276 107.926 206.016 108.457 205.496C108.988 204.965 109.254 204.234 109.254 203.305C109.254 202.43 108.988 201.733 108.457 201.213C107.937 200.682 107.245 200.416 106.382 200.416C105.485 200.416 104.771 200.682 104.24 201.213C103.709 201.744 103.443 202.447 103.443 203.321ZM103.012 213.747C103.012 215.031 103.338 216.033 103.991 216.752C104.655 217.471 105.48 217.831 106.465 217.831C107.428 217.831 108.225 217.488 108.855 216.802C109.486 216.104 109.802 215.103 109.802 213.797C109.802 212.657 109.481 211.744 108.839 211.058C108.197 210.36 107.383 210.012 106.398 210.012C105.258 210.012 104.406 210.405 103.842 211.19C103.288 211.976 103.012 212.828 103.012 213.747ZM123.747 217.648V211.323H117.372V206.957H123.747V200.632H127.997V206.957H134.389V211.323H127.997V217.648H123.747Z" fill="#002C6D"/>
</g>
<defs>
<filter id="filter0_d_86_603" x="0.974684" y="0.467823" width="194.051" height="250.482" filterUnits="userSpaceOnUse" color-interpolation-filters="sRGB">
<feFlood flood-opacity="0" result="BackgroundImageFix"/>
<feColorMatrix in="SourceAlpha" type="matrix" values="0 0 0 0 0 0 0 0 0 0 0 0 0 0 0 0 0 0 127 0" result="hardAlpha"/>
<feOffset dy="7.34177"/>
<feGaussianBlur stdDeviation="11.0127"/>
<feComposite in2="hardAlpha" operator="out"/>
<feColorMatrix type="matrix" values="0 0 0 0 0 0 0 0 0 0 0 0 0 0 0 0 0 0 0.2 0"/>
<feBlend mode="normal" in2="BackgroundImageFix" result="effect1_dropShadow_86_603"/>
<feBlend mode="normal" in="SourceGraphic" in2="effect1_dropShadow_86_603" result="shape"/>
</filter>
</defs>
</svg>
