<svg width="196" height="251" viewBox="0 0 196 251" fill="none" xmlns="http://www.w3.org/2000/svg">
<g filter="url(#filter0_d_86_610)">
<circle cx="98" cy="90.1514" r="75" fill="#EDF4FF"/>
<circle cx="98" cy="90.7442" r="61.9565" fill="white"/>
<path fill-rule="evenodd" clip-rule="evenodd" d="M86.6131 102.542C89.5262 105.455 93.5525 107.257 97.9984 107.257C102.444 107.257 106.471 105.455 109.384 102.542C112.297 99.6284 114.099 95.6021 114.099 91.1562C114.099 86.7103 112.297 82.6839 109.384 79.7709C106.471 76.8578 102.444 75.0556 97.9984 75.0556C93.5525 75.0556 89.5261 76.8577 86.6131 79.7709C83.7 82.684 81.8978 86.7103 81.8978 91.1562C81.8978 95.6021 83.6999 99.6285 86.6131 102.542ZM118.595 104.372C116.532 107.58 113.742 110.275 110.456 112.222C106.811 114.383 102.55 115.624 98.0001 115.624C91.2436 115.624 85.1271 112.885 80.6977 108.456C76.2688 104.027 73.53 97.9101 73.53 91.1536C73.53 84.3971 76.2688 78.2806 80.6977 73.8512C85.1244 69.4223 91.2436 66.6835 98.0001 66.6835C104.757 66.6835 110.873 69.4223 115.302 73.8512C119.731 78.2801 122.47 84.3971 122.47 91.1536C122.47 91.6014 122.462 91.9976 122.444 92.3399C122.425 92.7468 122.397 93.1408 122.36 93.5198C122.296 94.2152 122.804 94.8288 123.497 94.8934C124.193 94.9602 124.806 94.4499 124.871 93.7566C124.914 93.3152 124.946 92.8825 124.966 92.4561C124.989 91.976 125 91.5389 125 91.1514C125 83.6954 121.977 76.9472 117.092 72.0598C112.206 67.1745 105.456 64.1514 98 64.1514C90.5463 64.1514 83.7959 67.1743 78.9085 72.0598C74.0231 76.9452 71 83.6949 71 91.1514C71 98.6051 74.0229 105.356 78.9085 110.243C83.7938 115.128 90.5435 118.151 98 118.151C103.015 118.151 107.715 116.78 111.743 114.394C114.768 112.601 117.415 110.234 119.531 107.442V110.293C119.531 110.993 120.097 111.559 120.797 111.559C121.495 111.559 122.063 110.993 122.063 110.293V103.104C122.063 102.406 121.497 101.838 120.797 101.838H113.608C112.908 101.838 112.342 102.404 112.342 103.104C112.342 103.803 112.908 104.37 113.608 104.37H118.597L118.595 104.372ZM99.2645 82.0893V91.1536C99.2645 91.8534 98.6983 92.4197 97.9985 92.4197H92.2992C91.5994 92.4197 91.0332 91.8534 91.0332 91.1536C91.0332 90.4539 91.5994 89.8876 92.2992 89.8876H96.7302V82.0872C96.7302 81.3874 97.2965 80.8211 97.9963 80.8211C98.696 80.8211 99.2623 81.3874 99.2623 82.0872L99.2645 82.0893Z" fill="#002C6D"/>
<path d="M62.6016 221.151H57.9365V203.57C56.2321 205.164 54.2233 206.343 51.9102 207.106V202.873C53.1276 202.475 54.4502 201.722 55.8779 200.615C57.3057 199.497 58.2852 198.197 58.8164 196.714H62.6016V221.151ZM85.3457 216.818V221.151H68.9932C69.1702 219.513 69.7015 217.964 70.5869 216.503C71.4723 215.031 73.221 213.083 75.833 210.659C77.9359 208.7 79.2253 207.372 79.7012 206.675C80.3431 205.712 80.6641 204.76 80.6641 203.819C80.6641 202.779 80.3818 201.982 79.8174 201.429C79.264 200.864 78.4948 200.582 77.5098 200.582C76.5358 200.582 75.7611 200.875 75.1855 201.462C74.61 202.049 74.278 203.022 74.1895 204.384L69.541 203.919C69.8177 201.351 70.6865 199.508 72.1475 198.391C73.6084 197.273 75.4346 196.714 77.626 196.714C80.0277 196.714 81.9147 197.361 83.2871 198.656C84.6595 199.951 85.3457 201.562 85.3457 203.487C85.3457 204.583 85.1465 205.629 84.748 206.625C84.3607 207.61 83.7409 208.645 82.8887 209.729C82.3242 210.449 81.306 211.484 79.834 212.834C78.362 214.184 77.4268 215.081 77.0283 215.523C76.641 215.966 76.3255 216.398 76.082 216.818H85.3457ZM96.4023 196.714C98.7598 196.714 100.603 197.555 101.931 199.237C103.513 201.229 104.305 204.533 104.305 209.148C104.305 213.753 103.508 217.062 101.914 219.076C100.597 220.736 98.7598 221.566 96.4023 221.566C94.0339 221.566 92.1247 220.659 90.6748 218.844C89.2249 217.018 88.5 213.769 88.5 209.099C88.5 204.517 89.2969 201.218 90.8906 199.204C92.2077 197.544 94.0449 196.714 96.4023 196.714ZM96.4023 200.582C95.8379 200.582 95.3343 200.765 94.8916 201.13C94.4489 201.484 94.1058 202.126 93.8623 203.056C93.5413 204.262 93.3809 206.293 93.3809 209.148C93.3809 212.004 93.5247 213.968 93.8125 215.042C94.1003 216.104 94.46 216.813 94.8916 217.167C95.3343 217.521 95.8379 217.698 96.4023 217.698C96.9668 217.698 97.4704 217.521 97.9131 217.167C98.3558 216.802 98.6989 216.154 98.9424 215.225C99.2633 214.029 99.4238 212.004 99.4238 209.148C99.4238 206.293 99.2799 204.334 98.9922 203.271C98.7044 202.198 98.3392 201.484 97.8965 201.13C97.4648 200.765 96.9668 200.582 96.4023 200.582ZM115.328 196.714C117.686 196.714 119.528 197.555 120.856 199.237C122.439 201.229 123.23 204.533 123.23 209.148C123.23 213.753 122.434 217.062 120.84 219.076C119.523 220.736 117.686 221.566 115.328 221.566C112.96 221.566 111.05 220.659 109.601 218.844C108.151 217.018 107.426 213.769 107.426 209.099C107.426 204.517 108.223 201.218 109.816 199.204C111.133 197.544 112.971 196.714 115.328 196.714ZM115.328 200.582C114.764 200.582 114.26 200.765 113.817 201.13C113.375 201.484 113.032 202.126 112.788 203.056C112.467 204.262 112.307 206.293 112.307 209.148C112.307 212.004 112.451 213.968 112.738 215.042C113.026 216.104 113.386 216.813 113.817 217.167C114.26 217.521 114.764 217.698 115.328 217.698C115.893 217.698 116.396 217.521 116.839 217.167C117.282 216.802 117.625 216.154 117.868 215.225C118.189 214.029 118.35 212.004 118.35 209.148C118.35 206.293 118.206 204.334 117.918 203.271C117.63 202.198 117.265 201.484 116.822 201.13C116.391 200.765 115.893 200.582 115.328 200.582ZM132.71 217.648V211.323H126.335V206.957H132.71V200.632H136.96V206.957H143.352V211.323H136.96V217.648H132.71Z" fill="#002C6D"/>
</g>
<defs>
<filter id="filter0_d_86_610" x="0.974684" y="0.467823" width="194.051" height="250.466" filterUnits="userSpaceOnUse" color-interpolation-filters="sRGB">
<feFlood flood-opacity="0" result="BackgroundImageFix"/>
<feColorMatrix in="SourceAlpha" type="matrix" values="0 0 0 0 0 0 0 0 0 0 0 0 0 0 0 0 0 0 127 0" result="hardAlpha"/>
<feOffset dy="7.34177"/>
<feGaussianBlur stdDeviation="11.0127"/>
<feComposite in2="hardAlpha" operator="out"/>
<feColorMatrix type="matrix" values="0 0 0 0 0 0 0 0 0 0 0 0 0 0 0 0 0 0 0.2 0"/>
<feBlend mode="normal" in2="BackgroundImageFix" result="effect1_dropShadow_86_610"/>
<feBlend mode="normal" in="SourceGraphic" in2="effect1_dropShadow_86_610" result="shape"/>
</filter>
</defs>
</svg>
