<svg width="146" height="145" viewBox="0 0 146 145" fill="none" xmlns="http://www.w3.org/2000/svg">
<path d="M82.375 8.30273C82.375 3.61523 86.4766 0.0996094 90.8711 1.27148C122.219 9.47461 145.656 37.8926 145.656 71.584C145.656 111.721 113.137 144.24 73 144.24C32.8633 144.533 0.34375 112.307 0.34375 72.1699C0.0507812 38.1855 23.1953 9.47461 54.543 1.27148C59.2305 0.0996094 63.625 3.61523 63.625 8.30273V12.9902C63.625 16.2129 61.2812 18.8496 58.3516 19.7285C35.5 26.1738 19.0938 46.9746 19.0938 71.584C19.0938 101.467 43.1172 125.49 73 125.49C102.59 125.49 126.906 101.467 126.906 71.584C126.906 46.9746 110.207 26.1738 87.3555 19.7285C84.4258 18.8496 82.375 16.2129 82.375 12.9902V8.30273Z" fill="white" fill-opacity="0.08"/>
</svg>
