<svg width="281" height="401" viewBox="0 0 281 401" fill="none" xmlns="http://www.w3.org/2000/svg">
<path d="M286.446 103.87C291.548 96.0251 302.239 94.606 308.318 101.351C351.851 149.201 360.142 222.273 323.469 278.658C279.78 345.829 189.958 364.855 122.787 321.166C55.2964 277.967 35.9517 188.636 79.6408 121.464C116.143 64.2703 186.129 41.4136 247.52 61.8073C256.641 64.9485 260.169 75.6156 255.066 83.4604L249.964 91.3053C246.456 96.6986 239.663 98.5601 233.804 96.8421C188.544 82.7546 138.445 99.7078 111.658 140.893C79.1303 190.904 93.1855 257.259 143.196 289.786C192.717 321.995 259.562 308.259 292.09 258.248C318.877 217.063 313.572 164.074 282.344 128.413C278.397 123.753 277.835 117.108 281.343 111.715L286.446 103.87Z" fill="white" fill-opacity="0.04"/>
</svg>
