<svg width="122" height="186" viewBox="0 0 122 186" fill="none" xmlns="http://www.w3.org/2000/svg">
<path d="M138.753 35.9128C141.025 31.8128 146.316 30.7259 149.592 33.881C173.035 56.2509 179.76 92.4679 163.429 121.937C143.974 157.043 99.7672 169.724 64.6609 150.269C29.4125 131.07 16.5896 87.1194 36.0448 52.0131C52.2615 22.1461 86.4221 8.25215 117.817 16.272C122.485 17.5191 124.625 22.7243 122.353 26.8243L120.081 30.9243C118.518 33.7431 115.19 34.9132 112.202 34.2619C89.0901 28.8228 64.6575 39.0641 52.7288 60.5892C38.244 86.7267 47.6118 119.384 73.7494 133.869C99.6307 148.212 132.544 138.986 147.029 112.848C158.958 91.3231 154.434 65.0349 137.571 48.3207C135.434 46.1319 134.918 42.8316 136.481 40.0128L138.753 35.9128Z" fill="#002C6D" fill-opacity="0.03"/>
</svg>
