<svg width="375" height="364" viewBox="0 0 375 364" fill="none" xmlns="http://www.w3.org/2000/svg">
<path d="M331.716 189.308C329.232 180.695 305.43 190.953 295.266 204.462C288.497 213.449 284.13 223.213 281.637 236.499C282.66 221.247 283.788 204.85 284.852 189.379C286.968 185.628 291.791 176.965 295.282 170.073C306.983 147.105 332.257 139.611 341.611 125.276C353.887 106.409 355.377 77.2164 346.397 66.162C338.575 56.5706 307.755 117.004 304.287 123.749C294.842 141.806 288.458 161.308 285.394 181.459C286.408 166.929 287.346 153.545 288.073 143.261C290.46 109.692 291.759 98.923 292.274 95.6178C293.506 94.0617 294.959 92.2371 295.806 91.265C302.917 83.0485 318.237 73.6199 326.277 61.5452C338.031 43.9035 337.465 22.0184 330.323 13.4957C322.877 4.58801 307.823 23.8964 299.344 43.3652C290.864 62.8339 293.017 82.0316 290.047 98.4332C289.448 101.645 288.334 113.914 287.01 130.949C285.731 112.477 281.911 99.944 274.213 88.044C264.688 73.4064 256.796 55.7743 248.322 57.5472C239.848 59.3201 243.097 82.2484 248.91 98.5452C254.023 113.064 282.634 128.783 286.281 140.437C284.529 163.525 282.505 192.792 280.722 220.037C279.171 205.827 280.82 204.735 272.518 182.657C267.595 169.534 245.402 152.493 242.184 161.154C238.966 169.815 242.289 186.686 250.314 198.81C256.829 208.597 272.396 209.416 275.681 215.446C276.459 216.859 278.955 222.228 280.38 225.313C278.215 258.584 276.48 287.97 276.134 297.994L277.597 298.175C277.736 295.587 278.76 278.654 280.254 256.26C284.682 244.537 310.502 238.945 319.023 226.955C327.983 214.472 334.712 199.644 331.716 189.308Z" fill="#407BFF" fill-opacity="0.08"/>
<g filter="url(#filter0_f_103_593)">
<ellipse cx="179.904" cy="306.739" rx="159.5" ry="22.5" transform="rotate(-10.7046 179.904 306.739)" fill="black" fill-opacity="0.3"/>
</g>
<path d="M11.7957 188.544L10.3184 188.804L14.263 211.285L15.7403 211.025L11.7957 188.544Z" fill="#407BFF"/>
<path d="M17.2088 219.373L15.7314 219.632L17.7216 230.974L19.1989 230.715L17.2088 219.373Z" fill="#407BFF"/>
<path d="M111.546 136.506L109.499 131.653C108.091 128.318 105.595 125.559 102.418 123.829C99.2418 122.098 95.5729 121.498 92.0119 122.127L22.3226 134.38C18.1479 135.116 14.4361 137.481 12.0035 140.957C9.57092 144.433 8.61676 148.734 9.3509 152.915L39.1495 322.744C39.3975 324.164 39.9227 325.522 40.6952 326.739C41.4676 327.956 42.472 329.009 43.651 329.837C44.83 330.665 46.1605 331.252 47.5663 331.565C48.9721 331.878 50.4256 331.91 51.8438 331.66L301.203 287.821C302.624 287.576 303.983 287.053 305.202 286.281C306.421 285.509 307.476 284.504 308.305 283.323C309.135 282.142 309.724 280.808 310.038 279.399C310.352 277.989 310.385 276.531 310.135 275.109L284.311 128.297C283.81 125.431 282.193 122.882 279.815 121.209C277.437 119.537 274.494 118.879 271.632 119.38L126.829 144.846C123.715 145.39 120.51 144.861 117.734 143.347C114.959 141.832 112.777 139.421 111.546 136.506Z" fill="#407BFF"/>
<path d="M114.276 61.7518L35.8662 82.1411L63.9363 190.321L142.346 169.931L114.276 61.7518Z" fill="#407BFF"/>
<path opacity="0.7" d="M114.276 61.7518L35.8662 82.1411L63.9363 190.321L142.346 169.931L114.276 61.7518Z" fill="white"/>
<g opacity="0.4">
<path d="M105.2 88.6534L56.9022 101.225C55.7767 101.511 54.5837 101.342 53.5819 100.754C52.5801 100.165 51.8505 99.2047 51.5513 98.081C51.2648 96.9539 51.4337 95.7592 52.0213 94.7562C52.6089 93.7532 53.5678 93.0227 54.6899 92.7232L103.02 80.1942C104.145 79.9076 105.338 80.0769 106.34 80.6654C107.342 81.254 108.072 82.2143 108.371 83.3381C108.644 84.4635 108.464 85.6511 107.871 86.6452C107.278 87.6393 106.319 88.3604 105.2 88.6534Z" fill="#407BFF"/>
<path d="M109.84 106.573L61.5447 119.188C60.4212 119.471 59.2318 119.299 58.2333 118.711C57.2349 118.122 56.5076 117.164 56.2084 116.044C55.9263 114.919 56.0975 113.728 56.6849 112.728C57.2723 111.728 58.2288 111 59.348 110.701L107.647 98.1441C108.77 97.8618 109.96 98.0333 110.958 98.6217C111.957 99.2101 112.684 100.168 112.983 101.289C113.248 102.406 113.068 103.582 112.481 104.569C111.894 105.555 110.947 106.274 109.84 106.573Z" fill="#407BFF"/>
<path d="M114.477 124.464L66.1783 137.021C65.0548 137.303 63.8654 137.131 62.867 136.543C61.8686 135.954 61.1412 134.997 60.8421 133.876C60.56 132.751 60.7312 131.56 61.3186 130.56C61.906 129.56 62.8625 128.832 63.9816 128.533L112.28 115.961C113.403 115.679 114.593 115.851 115.591 116.439C116.589 117.027 117.317 117.985 117.616 119.106C117.902 120.233 117.733 121.428 117.146 122.431C116.558 123.434 115.599 124.164 114.477 124.464Z" fill="#407BFF"/>
<path d="M119.133 142.427L70.8346 154.984C69.7091 155.271 68.516 155.102 67.5143 154.513C66.5125 153.924 65.7828 152.964 65.4836 151.84C65.1971 150.713 65.366 149.519 65.9536 148.516C66.5412 147.513 67.5001 146.782 68.6223 146.483L116.921 133.926C118.047 133.639 119.24 133.809 120.241 134.397C121.243 134.986 121.973 135.946 122.272 137.07C122.559 138.197 122.39 139.391 121.802 140.394C121.214 141.397 120.256 142.128 119.133 142.427Z" fill="#407BFF"/>
<path d="M110.559 163.673L75.4675 172.801C74.344 173.083 73.1546 172.912 72.1561 172.323C71.1577 171.735 70.4304 170.777 70.1312 169.656C69.8447 168.529 70.0136 167.334 70.6012 166.331C71.1888 165.328 72.1477 164.598 73.2699 164.298L108.362 155.171C109.485 154.889 110.675 155.06 111.673 155.649C112.672 156.237 113.399 157.195 113.698 158.316C113.985 159.443 113.816 160.637 113.228 161.64C112.64 162.643 111.682 163.374 110.559 163.673Z" fill="#407BFF"/>
</g>
<path d="M226.084 34.1634L146.582 49.749L168.043 159.434L247.545 143.849L226.084 34.1634Z" fill="#407BFF"/>
<path opacity="0.7" d="M226.084 34.1634L146.582 49.749L168.043 159.434L247.545 143.849L226.084 34.1634Z" fill="white"/>
<g opacity="0.4">
<path d="M215.395 60.4866L166.425 70.0876C165.285 70.3047 164.104 70.0626 163.141 69.4139C162.177 68.7652 161.507 67.7622 161.277 66.6224C161.06 65.4801 161.302 64.2982 161.949 63.3331C162.597 62.3681 163.598 61.6977 164.737 61.4675L213.706 51.8665C214.847 51.6494 216.027 51.8914 216.991 52.5401C217.955 53.1889 218.625 54.1919 218.855 55.3316C219.072 56.474 218.83 57.6559 218.183 58.6209C217.535 59.586 216.533 60.2563 215.395 60.4866Z" fill="#407BFF"/>
<path d="M218.941 78.6163L169.972 88.2173C168.831 88.4344 167.651 88.1923 166.687 87.5436C165.723 86.8949 165.053 85.8919 164.823 84.7521C164.61 83.6119 164.854 82.4337 165.502 81.4719C166.149 80.5102 167.148 79.8421 168.284 79.6119L217.253 70.0109C218.392 69.7936 219.57 70.0338 220.533 70.6795C221.497 71.3252 222.167 72.3245 222.401 73.4614C222.618 74.6037 222.376 75.7856 221.729 76.7507C221.081 77.7157 220.079 78.3861 218.941 78.6163Z" fill="#407BFF"/>
<path d="M187.007 103.714L173.52 106.363C172.379 106.58 171.199 106.338 170.235 105.689C169.271 105.041 168.601 104.038 168.371 102.898C168.154 101.755 168.396 100.574 169.044 99.6085C169.691 98.6435 170.693 97.9731 171.831 97.7429L185.333 95.0932C186.472 94.8804 187.649 95.1246 188.609 95.7731C189.57 96.4216 190.237 97.4223 190.467 98.5592C190.684 99.7016 190.442 100.883 189.795 101.848C189.147 102.814 188.146 103.484 187.007 103.714Z" fill="#407BFF"/>
<path d="M213.181 98.5805L199.679 101.23C198.541 101.443 197.364 101.199 196.403 100.55C195.443 99.9018 194.775 98.9011 194.545 97.7642C194.328 96.6218 194.57 95.4399 195.218 94.4749C195.865 93.5099 196.867 92.8395 198.005 92.6092L211.493 89.9751C212.632 89.7578 213.81 89.998 214.773 90.6437C215.737 91.2894 216.408 92.2887 216.641 93.4256C216.858 94.5679 216.617 95.7498 215.969 96.7149C215.321 97.6799 214.32 98.3503 213.181 98.5805Z" fill="#407BFF"/>
<path d="M226.036 114.892L177.066 124.493C175.925 124.711 174.745 124.468 173.781 123.82C172.817 123.171 172.148 122.168 171.918 121.028C171.705 119.888 171.949 118.71 172.596 117.748C173.244 116.786 174.243 116.118 175.378 115.888L224.347 106.272C225.488 106.055 226.668 106.297 227.632 106.946C228.596 107.595 229.265 108.598 229.495 109.738C229.712 110.88 229.471 112.062 228.823 113.027C228.176 113.992 227.174 114.662 226.036 114.892Z" fill="#407BFF"/>
<path d="M216.212 135.649L180.613 142.623C179.477 142.836 178.302 142.594 177.342 141.948C176.382 141.303 175.714 140.306 175.48 139.172C175.263 138.032 175.503 136.852 176.147 135.887C176.792 134.923 177.79 134.251 178.925 134.018L214.524 127.044C215.66 126.831 216.835 127.073 217.795 127.719C218.755 128.364 219.424 129.361 219.657 130.495C219.874 131.635 219.634 132.815 218.99 133.78C218.345 134.744 217.347 135.416 216.212 135.649Z" fill="#407BFF"/>
</g>
<path d="M151.397 54.6407L71.2275 66.3047L87.293 176.911L167.463 165.247L151.397 54.6407Z" fill="#407BFF"/>
<path opacity="0.8" d="M151.397 54.6407L71.2275 66.3047L87.293 176.911L167.463 165.247L151.397 54.6407Z" fill="white"/>
<g opacity="0.4">
<path d="M139.431 80.4306L90.0424 87.6072C88.893 87.7676 87.7266 87.468 86.7961 86.7733C85.8656 86.0786 85.2459 85.0448 85.0713 83.8958C84.9151 82.747 85.2161 81.5827 85.9095 80.6543C86.6029 79.7259 87.633 79.1077 88.7777 78.9332L138.161 71.6684C139.311 71.5079 140.477 71.8075 141.408 72.5022C142.338 73.1969 142.958 74.2308 143.133 75.3797C143.223 75.955 143.198 76.5424 143.06 77.1081C142.923 77.6738 142.675 78.2066 142.331 78.676C141.987 79.1454 141.554 79.5421 141.056 79.8432C140.558 80.1443 140.006 80.3439 139.431 80.4306Z" fill="#407BFF"/>
<path d="M142.088 98.7159L92.7046 105.981C91.5551 106.141 90.3888 105.842 89.4583 105.147C88.5278 104.452 87.908 103.418 87.7334 102.269C87.573 101.118 87.872 99.9504 88.5656 99.0187C89.2593 98.087 90.2916 97.4667 91.439 97.292L140.823 90.0272C141.972 89.8667 143.139 90.1663 144.069 90.861C145 91.5557 145.619 92.5896 145.794 93.7385C145.954 94.8896 145.655 96.0575 144.962 96.9892C144.268 97.9208 143.236 98.5412 142.088 98.7159Z" fill="#407BFF"/>
<path d="M144.746 117.001L95.3618 124.265C94.2124 124.426 93.046 124.126 92.1155 123.431C91.185 122.737 90.5653 121.703 90.3906 120.554C90.2303 119.403 90.5293 118.235 91.2229 117.303C91.9165 116.372 92.9488 115.751 94.0962 115.577L143.48 108.312C144.629 108.151 145.796 108.451 146.726 109.146C147.657 109.84 148.277 110.874 148.451 112.023C148.612 113.174 148.313 114.342 147.619 115.274C146.925 116.205 145.893 116.826 144.746 117.001Z" fill="#407BFF"/>
<path d="M147.431 135.283L98.0472 142.548C96.8977 142.709 95.7314 142.409 94.8009 141.714C93.8703 141.02 93.2506 139.986 93.076 138.837C92.9156 137.686 93.2146 136.518 93.9082 135.586C94.6019 134.655 95.6342 134.034 96.7816 133.86L146.17 126.683C147.32 126.523 148.486 126.822 149.417 127.517C150.347 128.212 150.967 129.245 151.142 130.394C151.277 131.532 150.966 132.678 150.274 133.59C149.581 134.503 148.562 135.11 147.431 135.283Z" fill="#407BFF"/>
<path d="M136.562 155.54L100.671 160.761C99.5151 160.934 98.3377 160.641 97.3974 159.945C96.4571 159.25 95.8307 158.209 95.6558 157.052C95.4954 155.901 95.7944 154.733 96.4881 153.801C97.1817 152.87 98.214 152.249 99.3614 152.075L135.252 146.854C136.402 146.694 137.568 146.993 138.499 147.688C139.429 148.383 140.049 149.417 140.224 150.566C140.384 151.71 140.091 152.871 139.406 153.801C138.722 154.731 137.701 155.355 136.562 155.54Z" fill="#407BFF"/>
</g>
<path d="M249.267 43.5942L168.706 52.1396L180.481 163.285L261.042 154.74L249.267 43.5942Z" fill="#407BFF"/>
<path opacity="0.8" d="M249.267 43.5942L168.706 52.1396L180.481 163.285L261.042 154.74L249.267 43.5942Z" fill="white"/>
<g opacity="0.4">
<path d="M236.322 68.8705L186.706 74.1427C185.552 74.2573 184.4 73.9128 183.498 73.1835C182.596 72.4543 182.017 71.3989 181.886 70.2456C181.771 69.0905 182.115 67.9368 182.843 67.0337C183.571 66.1307 184.625 65.551 185.777 65.4198L235.408 60.1468C236.561 60.0322 237.714 60.3767 238.616 61.106C239.517 61.8352 240.097 62.8906 240.228 64.0439C240.342 65.2014 239.997 66.3574 239.265 67.261C238.534 68.1646 237.477 68.743 236.322 68.8705Z" fill="#407BFF"/>
<path d="M238.277 87.2545L188.645 92.5128C187.492 92.6274 186.339 92.2829 185.438 91.5536C184.536 90.8244 183.956 89.769 183.825 88.6157C183.711 87.4582 184.056 86.3022 184.788 85.3986C185.519 84.495 186.577 83.9166 187.731 83.7891L237.347 78.5169C238.503 78.4022 239.658 78.7487 240.56 79.481C241.463 80.2134 242.04 81.2726 242.168 82.4287C242.283 83.5837 241.939 84.7375 241.211 85.6406C240.482 86.5436 239.429 87.1234 238.277 87.2545Z" fill="#407BFF"/>
<path d="M204.279 109.505L190.605 110.955C189.452 111.07 188.299 110.725 187.397 109.996C186.495 109.267 185.916 108.211 185.785 107.058C185.671 105.903 186.014 104.749 186.743 103.846C187.471 102.943 188.525 102.364 189.676 102.232L203.35 100.768C204.506 100.653 205.66 100.999 206.563 101.732C207.465 102.464 208.043 103.523 208.17 104.679C208.285 105.834 207.941 106.988 207.213 107.891C206.485 108.794 205.431 109.374 204.279 109.505Z" fill="#407BFF"/>
<path d="M230.789 106.624L217.115 108.074C215.961 108.189 214.809 107.844 213.907 107.115C213.005 106.386 212.426 105.331 212.295 104.177C212.18 103.022 212.524 101.868 213.252 100.965C213.981 100.062 215.034 99.4826 216.186 99.3515L229.86 97.9014C231.014 97.7868 232.166 98.1313 233.068 98.8606C233.97 99.5899 234.549 100.645 234.68 101.799C234.795 102.954 234.451 104.107 233.723 105.01C232.995 105.913 231.941 106.493 230.789 106.624Z" fill="#407BFF"/>
<path d="M242.173 124.008L192.542 129.267C191.388 129.381 190.236 129.037 189.334 128.308C188.432 127.578 187.853 126.523 187.722 125.37C187.607 124.212 187.953 123.056 188.684 122.152C189.415 121.249 190.473 120.671 191.628 120.543L241.244 115.271C242.4 115.156 243.554 115.503 244.457 116.235C245.359 116.967 245.937 118.026 246.064 119.183C246.179 120.338 245.835 121.491 245.107 122.394C244.379 123.298 243.325 123.877 242.173 124.008Z" fill="#407BFF"/>
<path d="M230.556 143.822L194.497 147.651C193.343 147.766 192.191 147.421 191.289 146.692C190.387 145.963 189.808 144.907 189.677 143.754C189.562 142.599 189.906 141.445 190.634 140.542C191.362 139.639 192.416 139.059 193.568 138.928L229.627 135.099C230.781 134.985 231.933 135.329 232.835 136.059C233.737 136.788 234.316 137.843 234.447 138.996C234.562 140.152 234.218 141.305 233.49 142.208C232.762 143.111 231.708 143.691 230.556 143.822Z" fill="#407BFF"/>
</g>
<path d="M134.131 138.378L132.561 133.616C131.463 130.32 129.195 127.543 126.187 125.813C123.179 124.082 119.641 123.519 116.245 124.229L46.5562 136.482C42.3297 137.249 38.528 139.534 35.8638 142.907C33.1997 146.281 31.856 150.512 32.0848 154.807L45.6883 321.954C45.7913 323.331 46.1876 324.67 46.8505 325.882C47.5134 327.093 48.4276 328.148 49.5315 328.976C50.6355 329.804 51.9036 330.386 53.2507 330.682C54.5978 330.979 55.9927 330.983 57.3414 330.694L306.701 286.855C309.595 286.333 312.2 284.773 314.028 282.466C315.856 280.158 316.781 277.263 316.63 274.322L304.874 129.828C304.769 128.45 304.37 127.111 303.706 125.9C303.041 124.689 302.126 123.634 301.021 122.806C299.916 121.979 298.647 121.397 297.299 121.101C295.951 120.805 294.555 120.8 293.206 121.089L148.417 146.539C145.451 147.169 142.357 146.686 139.723 145.181C137.09 143.676 135.1 141.255 134.131 138.378Z" fill="#407BFF"/>
<path opacity="0.3" d="M134.131 138.378L132.561 133.616C131.463 130.32 129.195 127.543 126.187 125.813C123.179 124.082 119.641 123.519 116.245 124.229L46.5562 136.482C42.3297 137.249 38.528 139.534 35.8638 142.907C33.1997 146.281 31.856 150.512 32.0848 154.807L45.6883 321.954C45.7913 323.331 46.1876 324.67 46.8505 325.882C47.5134 327.093 48.4276 328.148 49.5315 328.976C50.6355 329.804 51.9036 330.386 53.2507 330.682C54.5978 330.979 55.9927 330.983 57.3414 330.694L306.701 286.855C309.595 286.333 312.2 284.773 314.028 282.466C315.856 280.158 316.781 277.263 316.63 274.322L304.874 129.828C304.769 128.45 304.37 127.111 303.706 125.9C303.041 124.689 302.126 123.634 301.021 122.806C299.916 121.979 298.647 121.397 297.299 121.101C295.951 120.805 294.555 120.8 293.206 121.089L148.417 146.539C145.451 147.169 142.357 146.686 139.723 145.181C137.09 143.676 135.1 141.255 134.131 138.378Z" fill="black"/>
<defs>
<filter id="filter0_f_103_593" x="3.12256" y="249.771" width="353.562" height="113.938" filterUnits="userSpaceOnUse" color-interpolation-filters="sRGB">
<feFlood flood-opacity="0" result="BackgroundImageFix"/>
<feBlend mode="normal" in="SourceGraphic" in2="BackgroundImageFix" result="shape"/>
<feGaussianBlur stdDeviation="10" result="effect1_foregroundBlur_103_593"/>
</filter>
</defs>
</svg>
