<svg width="28" height="28" viewBox="0 0 28 28" fill="none" xmlns="http://www.w3.org/2000/svg">
<path d="M18.1027 19.244L19.2444 18.1024L17.1169 15.9749C17.0609 16.0419 16.9939 16.1048 16.9351 16.1704C16.6343 16.5027 16.3157 16.8213 15.9725 17.1152L18.1 19.2426L18.1027 19.244Z" fill="white"/>
<path d="M27.046 23.2804L21.5332 18.6468C21.3541 18.4964 21.134 18.4226 20.9207 18.4226C20.6787 18.4226 20.4408 18.5142 20.2562 18.7029L18.7016 20.2534C18.3475 20.6075 18.327 21.153 18.6456 21.5304L23.2791 27.0474C23.7658 27.6243 24.4522 27.9675 25.211 27.9962C25.9712 28.0345 26.6781 27.7542 27.2168 27.2155C27.7528 26.6796 28.029 25.9658 28.0003 25.207C27.9647 24.4509 27.6297 23.7645 27.0486 23.2778L27.046 23.2804ZM25.7539 25.7537C25.6063 25.9014 25.4107 25.978 25.2152 25.978C25.0197 25.978 24.8296 25.9014 24.6834 25.7537L24.2664 25.3408C23.9724 25.0428 23.9724 24.5642 24.2664 24.2703C24.5603 23.9763 25.043 23.9763 25.3369 24.2703L25.7539 24.6873C26.0479 24.9812 26.0479 25.4611 25.7539 25.7551V25.7537Z" fill="white"/>
<path d="M9.23996 15.3829C12.6253 15.3829 15.3789 12.6279 15.3789 9.24398C15.3789 5.85865 12.6239 3.09802 9.23996 3.09802C5.85462 3.09802 3.09399 5.85305 3.09399 9.24398C3.09399 12.6361 5.85175 15.3829 9.23996 15.3829ZM4.70478 9.23698C4.94268 9.83173 5.17786 10.3431 5.46088 10.8052C6.34002 12.2614 7.64167 13.172 9.24143 13.7763C6.67646 14.7566 3.72165 11.8088 4.70485 9.23971L4.70478 9.23698Z" fill="white"/>
<path d="M9.23977 18.4771C14.3329 18.4771 18.4771 14.3329 18.4771 9.23977C18.4771 4.14666 14.3329 0 9.23977 0C4.14666 0 0 4.14421 0 9.23977C0 14.3357 4.14841 18.4771 9.23977 18.4771ZM9.23977 1.96045C13.2513 1.96045 16.5163 5.22545 16.5163 9.24117C16.5163 13.2555 13.2513 16.5177 9.23977 16.5177C5.22821 16.5177 1.95905 13.2527 1.95905 9.24117C1.95905 5.22961 5.22405 1.96045 9.23977 1.96045Z" fill="white"/>
</svg>
