<svg width="27" height="28" viewBox="0 0 27 28" fill="none" xmlns="http://www.w3.org/2000/svg">
<rect y="0.833984" width="26.7907" height="26.7907" rx="2" fill="white"/>
<path d="M5.95361 9.17421C5.95361 8.69812 6.12123 8.30536 6.45644 7.99591C6.79166 7.68646 7.22745 7.53174 7.7638 7.53174C8.29057 7.53174 8.71677 7.68407 9.04242 7.98877C9.37763 8.30299 9.54524 8.7124 9.54524 9.21706C9.54524 9.67409 9.38243 10.0549 9.05678 10.3596C8.72157 10.6739 8.28099 10.831 7.73506 10.831H7.7207C7.19392 10.831 6.76772 10.6739 6.44208 10.3596C6.11643 10.0454 5.95361 9.65028 5.95361 9.17421ZM6.14038 21.6713V12.1307H9.32975V21.6713H6.14038ZM11.0968 21.6713H14.2862V16.344C14.2862 16.0107 14.3245 15.7536 14.4011 15.5727C14.5352 15.249 14.7387 14.9752 15.0117 14.7515C15.2847 14.5277 15.6271 14.4158 16.0389 14.4158C17.1116 14.4158 17.648 15.1347 17.648 16.5725V21.6713H20.8373V16.2011C20.8373 14.7919 20.5021 13.7231 19.8317 12.9947C19.1612 12.2663 18.2753 11.9021 17.1739 11.9021C15.9383 11.9021 14.9758 12.4306 14.2862 13.4875V13.516H14.2718L14.2862 13.4875V12.1307H11.0968C11.116 12.4353 11.1256 13.3827 11.1256 14.9728C11.1256 16.5629 11.116 18.7957 11.0968 21.6713Z" fill="#002C6D"/>
</svg>
