<svg width="27" height="28" viewBox="0 0 27 28" fill="none" xmlns="http://www.w3.org/2000/svg">
<rect y="0.833984" width="26.7907" height="26.7907" rx="2" fill="white"/>
<path d="M20.7854 9.72381C20.3182 9.9342 19.7842 10.0637 19.2836 10.1446C19.5339 10.1122 19.8843 9.67525 20.0345 9.51341C20.2514 9.25446 20.435 8.94696 20.5351 8.62327C20.5518 8.5909 20.5518 8.55853 20.5351 8.54235C20.5017 8.52617 20.4851 8.54235 20.4517 8.54235C19.8843 8.83367 19.3003 9.06025 18.6662 9.20591C18.6161 9.22209 18.5827 9.20591 18.5494 9.17354C18.4993 9.1088 18.4492 9.06025 18.3992 9.0117C18.1322 8.8013 17.8485 8.62327 17.5315 8.4938C17.1143 8.33195 16.6471 8.25103 16.1965 8.2834C15.7627 8.31577 15.3288 8.42906 14.945 8.62327C14.5612 8.81748 14.2108 9.09262 13.9271 9.43249C13.6434 9.77236 13.4265 10.177 13.3264 10.6139C13.2262 11.0347 13.2262 11.4393 13.293 11.8601C13.3097 11.9249 13.293 11.9411 13.2262 11.9249C10.7566 11.585 8.72078 10.7434 7.06877 8.91459C7.00203 8.83367 6.95196 8.83367 6.9019 8.91459C6.18437 9.96657 6.53479 11.6497 7.43589 12.4913C7.55269 12.6046 7.68619 12.7179 7.81968 12.815C7.76962 12.8312 7.16889 12.7665 6.63491 12.4913C6.56817 12.4428 6.53479 12.4751 6.51811 12.5561C6.51811 12.6694 6.51811 12.7665 6.53479 12.8959C6.66829 13.9641 7.43589 14.9513 8.47047 15.3236C8.58728 15.3721 8.73746 15.4207 8.87096 15.4369C8.63734 15.4854 8.38704 15.5178 7.70288 15.4692C7.61944 15.4531 7.58607 15.5016 7.61944 15.5664C8.12005 16.9258 9.22138 17.3304 10.0557 17.557C10.1725 17.5732 10.2727 17.5732 10.3895 17.6056C10.3895 17.6218 10.3728 17.6218 10.3728 17.6218C10.1058 18.0264 9.15464 18.3339 8.70409 18.4795C7.90312 18.7547 7.01871 18.868 6.16768 18.787C6.03418 18.7709 6.00081 18.7709 5.96744 18.787C5.93406 18.8032 5.96744 18.8356 6.00081 18.868C6.16768 18.9812 6.35124 19.0784 6.53479 19.1755C7.06877 19.4506 7.63613 19.6772 8.22017 19.839C11.2572 20.6482 14.6947 20.0494 16.9808 17.8483C18.7663 16.1328 19.4004 13.7537 19.4004 11.3584C19.4004 11.2613 19.5172 11.2128 19.584 11.1642C20.0512 10.8243 20.4183 10.4197 20.7687 9.96657C20.8522 9.86947 20.8355 9.77236 20.8355 9.73999V9.72381C20.8355 9.69144 20.8522 9.69144 20.7854 9.72381Z" fill="#002C6D"/>
</svg>
